<?xml version="1.0" standalone="no"?>
<!DOCTYPE svg PUBLIC "-//W3C//DTD SVG 20010904//EN"
 "http://www.w3.org/TR/2001/REC-SVG-20010904/DTD/svg10.dtd">
<svg version="1.0" xmlns="http://www.w3.org/2000/svg"
 width="512.000000pt" height="512.000000pt" viewBox="0 0 512.000000 512.000000"
 preserveAspectRatio="xMidYMid meet">
<metadata>
Created by potrace 1.16, written by Peter Selinger 2001-2019
</metadata>
<g transform="translate(0.000000,512.000000) scale(0.100000,-0.100000)"
fill="#000000" stroke="none">
<path d="M2655 4025 c-452 -126 -986 -324 -1492 -552 -264 -119 -302 -147
-330 -242 -13 -45 -13 -63 -4 -107 14 -59 40 -87 194 -208 l87 -70 -71 -37
c-89 -47 -132 -88 -166 -157 -31 -64 -36 -159 -10 -209 10 -18 73 -79 141
-135 68 -57 230 -197 361 -313 131 -115 284 -250 340 -300 56 -49 165 -148
241 -220 77 -71 189 -175 249 -229 61 -55 116 -109 124 -120 20 -31 115 -108
159 -129 25 -12 50 -16 80 -12 24 2 186 63 360 134 323 131 990 395 1140 450
105 39 139 57 168 88 39 42 32 83 -22 144 -35 40 -44 57 -42 81 3 26 10 32 63
53 96 39 138 104 105 165 -9 16 -140 139 -414 385 l-98 88 53 14 c82 21 101
37 97 81 -3 34 -11 43 -98 108 -129 97 -501 358 -562 396 -27 17 -51 28 -54
25 -7 -6 84 -78 386 -308 259 -196 268 -205 254 -219 -6 -6 -78 -28 -160 -50
-395 -103 -782 -235 -1100 -375 -223 -99 -286 -134 -329 -182 -33 -38 -45 -44
-63 -39 -44 14 -686 534 -976 791 -101 89 -215 188 -255 220 -40 32 -77 69
-81 81 -17 42 26 153 53 138 7 -4 59 -49 117 -99 58 -50 177 -151 265 -225
308 -259 463 -399 712 -643 79 -77 145 -138 148 -136 16 17 -326 370 -582 600
-82 74 -247 220 -368 325 -121 106 -231 203 -244 217 l-23 26 68 31 c391 180
768 335 1094 450 256 90 566 181 636 187 61 6 62 5 106 -36 25 -22 73 -80 108
-129 110 -154 185 -335 225 -542 l15 -75 -5 95 c-12 247 -120 524 -263 674
-57 58 -112 86 -172 85 -25 0 -99 -15 -165 -34z m-1133 -1511 c635 -497 697
-544 720 -544 21 0 43 7 153 50 l30 12 -23 18 -23 19 48 22 c408 185 661 279
1061 395 122 35 227 64 233 64 5 0 99 -80 207 -179 108 -98 222 -200 253 -227
75 -65 88 -88 65 -113 -9 -10 -38 -27 -64 -36 -478 -178 -1281 -508 -1543
-634 -134 -64 -191 -112 -207 -175 l-8 -29 -39 34 c-68 57 -214 189 -350 314
-136 125 -777 696 -925 824 -116 100 -120 105 -120 161 0 38 7 58 33 95 18 27
36 48 41 48 4 0 76 -59 160 -130 237 -203 564 -484 764 -657 169 -145 262
-216 285 -216 18 0 -102 126 -229 241 -124 112 -509 445 -788 682 -83 71 -126
114 -124 125 3 18 76 63 95 59 6 -1 139 -102 295 -223z m-462 198 c0 -4 -16
-24 -36 -43 -20 -18 -49 -56 -65 -84 -33 -57 -40 -35 -10 31 23 51 111 127
111 96z m2930 -847 c-14 -8 -29 -14 -35 -14 -5 0 1 6 15 14 14 8 30 14 35 14
6 0 -1 -6 -15 -14z m110 -12 c0 -16 3 -38 6 -50 7 -26 19 -19 -176 -94 -850
-325 -1385 -557 -1356 -586 1 -2 117 46 257 106 260 110 677 280 1081 439 217
85 228 89 244 71 9 -10 13 -22 10 -27 -3 -6 -59 -31 -123 -56 -686 -267 -1154
-455 -1353 -541 -121 -53 -138 -57 -170 -40 -32 17 -40 33 -40 83 0 30 8 43
48 81 70 67 350 193 1076 481 181 72 331 129 333 127 2 -3 -40 -23 -94 -45
-54 -22 -154 -66 -223 -97 -69 -32 -168 -77 -220 -100 -52 -23 -201 -90 -332
-148 -279 -125 -429 -199 -447 -221 -8 -9 -9 -16 -4 -16 5 0 134 56 287 125
153 69 280 125 281 125 5 0 758 341 840 380 75 36 75 36 75 3z"/>
<path d="M2100 1642 c0 -13 163 -163 280 -259 10 -8 26 -10 44 -5 27 7 25 9
-76 98 -132 116 -208 174 -230 174 -10 0 -18 -4 -18 -8z"/>
<path d="M2705 3665 c-5 -2 -66 -20 -135 -40 -289 -85 -465 -153 -715 -274
-99 -48 -186 -95 -193 -104 -8 -9 -11 -24 -8 -34 3 -10 61 -66 128 -123 229
-196 402 -354 609 -557 207 -204 249 -234 249 -180 0 30 -411 437 -680 672
-208 182 -222 194 -215 205 9 14 320 164 440 211 115 46 437 155 505 172 22 5
52 -14 195 -125 204 -157 306 -230 313 -223 10 10 -61 75 -236 218 -179 146
-233 188 -242 186 -3 0 -9 -2 -15 -4z"/>
</g>
</svg>